<svg width="97" height="26" viewBox="0 0 97 26" fill="none" xmlns="http://www.w3.org/2000/svg">
<path d="M89.7956 16.6585V9.00828H91.0407V10.0641C91.1789 9.83842 91.3173 9.65026 91.4556 9.49967C91.5983 9.34919 91.782 9.22964 92.0068 9.14109C92.2359 9.05254 92.545 8.99057 92.9341 8.95515C93.3231 8.9153 93.8355 8.89539 94.4709 8.89539V9.96456C93.6149 9.96456 92.9514 9.99551 92.4801 10.0575C92.0133 10.1194 91.6783 10.2258 91.475 10.3762C91.2719 10.5224 91.1487 10.726 91.1054 10.9872C91.0622 11.2484 91.0407 11.5804 91.0407 11.9834V16.6585H89.7956Z" fill="white"/>
<path d="M83.6419 16.8047C82.8075 16.8047 82.0986 16.7604 81.515 16.6718C80.9313 16.5878 80.4602 16.4128 80.1014 16.1472C79.7426 15.8772 79.4809 15.4743 79.3167 14.9386C79.1524 14.4029 79.0703 13.688 79.0703 12.7937C79.0703 11.9259 79.1524 11.2309 79.3167 10.7084C79.4809 10.186 79.7426 9.79205 80.1014 9.52634C80.4602 9.26074 80.9313 9.08365 81.515 8.99512C82.0986 8.90657 82.8075 8.8623 83.6419 8.8623C84.4806 8.8623 85.1896 8.90657 85.7688 8.99512C86.3524 9.08365 86.8236 9.26074 87.1825 9.52634C87.5413 9.79205 87.8028 10.186 87.9671 10.7084C88.1313 11.2309 88.2135 11.9259 88.2135 12.7937C88.2135 13.688 88.1313 14.4029 87.9671 14.9386C87.8028 15.4743 87.5413 15.8772 87.1825 16.1472C86.8236 16.4128 86.3524 16.5878 85.7688 16.6718C85.1896 16.7604 84.4806 16.8047 83.6419 16.8047ZM86.9685 12.7937C86.9685 12.1605 86.9361 11.6537 86.8712 11.2729C86.8107 10.8921 86.6746 10.6066 86.4627 10.4162C86.2509 10.2215 85.9202 10.0908 85.4706 10.0244C85.0253 9.95807 84.4158 9.9248 83.6419 9.9248C82.8724 9.9248 82.2629 9.95807 81.8133 10.0244C81.3636 10.0908 81.0329 10.2215 80.8212 10.4162C80.6093 10.6066 80.471 10.8921 80.4061 11.2729C80.3456 11.6537 80.3153 12.1605 80.3153 12.7937C80.3153 13.4489 80.3456 13.9735 80.4061 14.3675C80.471 14.7615 80.6093 15.0582 80.8212 15.2573C81.0329 15.4522 81.3636 15.5827 81.8133 15.6492C82.2629 15.7112 82.8724 15.7422 83.6419 15.7422C84.4158 15.7422 85.0253 15.7112 85.4706 15.6492C85.9202 15.5827 86.2509 15.4522 86.4627 15.2573C86.6746 15.0582 86.8107 14.7615 86.8712 14.3675C86.9361 13.9735 86.9685 13.4489 86.9685 12.7937Z" fill="white"/>
<path d="M74.7323 16.6587C73.9714 16.6587 73.3619 16.5813 72.9036 16.4263C72.4453 16.267 72.1125 15.9881 71.905 15.5896C71.7018 15.1867 71.6003 14.6223 71.6003 13.8962V6.91675H72.8452V9.00859H77.4429V10.0578H72.8452V13.8962C72.8452 14.392 72.8885 14.7617 72.975 15.0052C73.0658 15.2488 73.2451 15.4081 73.5131 15.4833C73.7856 15.5586 74.1919 15.5962 74.7323 15.5962C75.2122 15.5962 75.5883 15.5808 75.8606 15.5497C76.1372 15.5188 76.3405 15.4368 76.4701 15.3041C76.5998 15.1668 76.682 14.9433 76.7166 14.6333C76.7512 14.3234 76.7684 13.8874 76.7684 13.3251H77.8708C77.8708 14.06 77.8255 14.6488 77.7346 15.0916C77.6482 15.5343 77.4903 15.8685 77.2612 16.0943C77.0365 16.3201 76.7188 16.4706 76.308 16.5459C75.9017 16.6212 75.3764 16.6587 74.7323 16.6587Z" fill="white"/>
<path d="M65.4466 16.8047C64.6123 16.8047 63.9033 16.7604 63.3197 16.6718C62.7361 16.5878 62.2649 16.4128 61.9061 16.1472C61.5473 15.8772 61.2857 15.4743 61.1215 14.9386C60.9571 14.4029 60.8751 13.688 60.8751 12.7937C60.8751 11.9259 60.9571 11.2309 61.1215 10.7084C61.2857 10.186 61.5473 9.79205 61.9061 9.52634C62.2649 9.26074 62.7361 9.08365 63.3197 8.99512C63.9033 8.90657 64.6123 8.8623 65.4466 8.8623C66.4452 8.8623 67.2666 8.92207 67.9108 9.04161C68.5592 9.1567 69.0391 9.3958 69.3503 9.75879C69.6616 10.1219 69.8172 10.6752 69.8172 11.419H68.6241C68.6241 10.9895 68.5376 10.6686 68.3647 10.4561C68.1917 10.2436 67.8762 10.1019 67.4179 10.0311C66.9597 9.96027 66.3025 9.9248 65.4466 9.9248C64.6771 9.9248 64.0676 9.95807 63.618 10.0244C63.1684 10.0908 62.8377 10.2215 62.6259 10.4162C62.414 10.6066 62.2757 10.8921 62.2109 11.2729C62.1503 11.6537 62.1201 12.1605 62.1201 12.7937C62.1201 13.4489 62.1503 13.9735 62.2109 14.3675C62.2757 14.7615 62.414 15.0582 62.6259 15.2573C62.8377 15.4522 63.1684 15.5827 63.618 15.6492C64.0676 15.7112 64.6771 15.7422 65.4466 15.7422C66.0994 15.7422 66.6334 15.7244 67.0484 15.6891C67.4633 15.6492 67.7854 15.5739 68.0145 15.4632C68.2436 15.3481 68.4015 15.1843 68.4878 14.9718C68.5787 14.7549 68.6241 14.4671 68.6241 14.1086H69.8172C69.8172 14.7018 69.7308 15.1777 69.5579 15.5363C69.3849 15.8948 69.1212 16.165 68.7668 16.3465C68.4123 16.5279 67.9583 16.6497 67.4049 16.7117C66.8559 16.7737 66.2032 16.8047 65.4466 16.8047Z" fill="white"/>
<path d="M54.5333 16.8046C53.5563 16.8046 52.7868 16.696 52.2248 16.4791C51.6628 16.2578 51.2629 15.8903 51.0252 15.3769C50.7874 14.8589 50.6686 14.1527 50.6686 13.2584V9.0083H51.92V13.2584C51.92 13.7631 51.9589 14.1793 52.0368 14.5069C52.1189 14.83 52.2615 15.0824 52.4648 15.2639C52.6679 15.441 52.9532 15.565 53.3207 15.6358C53.6925 15.7067 54.1702 15.742 54.7537 15.742C55.6184 15.742 56.2971 15.669 56.79 15.5229C57.2827 15.3769 57.6307 15.1488 57.834 14.8389C58.0414 14.5245 58.1452 14.1173 58.1452 13.617V9.0083H59.3903V16.6585H58.1452V15.6425C57.9637 15.8992 57.7345 16.1139 57.4579 16.2866C57.1812 16.4592 56.8116 16.5876 56.349 16.6717C55.8864 16.7603 55.2812 16.8046 54.5333 16.8046Z" fill="white"/>
<path d="M44.4371 16.8047C43.6027 16.8047 42.8937 16.7604 42.3102 16.6719C41.7266 16.5878 41.2554 16.4129 40.8965 16.1472C40.5377 15.8772 40.2762 15.4744 40.1119 14.9386C39.9477 14.4029 39.8655 13.688 39.8655 12.7937C39.8655 11.9259 39.9477 11.2309 40.1119 10.7085C40.2762 10.186 40.5377 9.79207 40.8965 9.52647C41.2554 9.26075 41.7266 9.08369 42.3102 8.99515C42.8937 8.9066 43.6027 8.86233 44.4371 8.86233C45.2369 8.86233 45.9112 8.92432 46.4603 9.04827C47.0136 9.17224 47.4481 9.44891 47.7637 9.87833V6.45837H49.0088V16.6586H47.7637V15.782C47.4481 16.2159 47.0136 16.4948 46.4603 16.6187C45.9112 16.7428 45.2369 16.8047 44.4371 16.8047ZM47.7637 12.7937C47.7637 12.1606 47.7204 11.6537 47.634 11.273C47.5476 10.8922 47.3876 10.6066 47.1542 10.4162C46.9207 10.2215 46.5856 10.0908 46.149 10.0245C45.7124 9.95808 45.1417 9.92481 44.4371 9.92481C43.6676 9.92481 43.0581 9.95808 42.6084 10.0245C42.1588 10.0908 41.8281 10.2215 41.6163 10.4162C41.4044 10.6066 41.2662 10.8922 41.2013 11.273C41.1408 11.6537 41.1105 12.1606 41.1105 12.7937C41.1105 13.4489 41.1408 13.9735 41.2013 14.3676C41.2662 14.7616 41.4044 15.0582 41.6163 15.2575C41.8281 15.4522 42.1588 15.5828 42.6084 15.6492C43.0581 15.7112 43.6676 15.7422 44.4371 15.7422C45.1417 15.7422 45.7124 15.7112 46.149 15.6492C46.5856 15.5828 46.9207 15.4522 47.1542 15.2575C47.3876 15.0582 47.5476 14.7616 47.634 14.3676C47.7204 13.9735 47.7637 13.4489 47.7637 12.7937Z" fill="white"/>
<path d="M29.7109 16.6586V9.0084H30.956V10.0244C31.1418 9.76771 31.371 9.55289 31.6433 9.38027C31.92 9.20762 32.2874 9.07924 32.7457 8.99512C33.2083 8.90657 33.8135 8.8623 34.5614 8.8623C35.5384 8.8623 36.3079 8.9597 36.8699 9.1545C37.4362 9.34931 37.8382 9.69687 38.076 10.1971C38.3138 10.6974 38.4326 11.4057 38.4326 12.3222V16.6586H37.1812V12.3222C37.1812 11.7998 37.1379 11.3792 37.0514 11.0604C36.965 10.7417 36.8159 10.5004 36.604 10.3366C36.3965 10.1728 36.1091 10.0643 35.7416 10.0112C35.3741 9.95355 34.9072 9.9248 34.3409 9.9248C33.4763 9.9248 32.7976 9.99784 32.3047 10.144C31.812 10.2901 31.464 10.5202 31.2607 10.8346C31.0576 11.1445 30.956 11.5496 30.956 12.0498V16.6586H29.7109Z" fill="white"/>
<path d="M26.78 16.6586V9.43349H28.0249V16.6586H26.78ZM26.78 7.73341V6.45837H28.0249V7.73341H26.78Z" fill="white"/>
<path d="M1.65247 10.7975C1.65247 7.66529 1.65247 6.09922 2.24263 4.89454C2.80769 3.74112 3.74039 2.80842 4.89381 2.24336C6.09848 1.6532 7.66455 1.6532 10.7967 1.6532H15.0794C18.2115 1.6532 19.7776 1.6532 20.9824 2.24336C22.1358 2.80842 23.0684 3.74112 23.6335 4.89454C24.2237 6.09922 24.2237 7.66529 24.2237 10.7975V15.0801C24.2237 18.2123 24.2237 19.7784 23.6335 20.9831C23.0684 22.1365 22.1358 23.0691 20.9824 23.6343C19.7776 24.2244 18.2115 24.2244 15.0794 24.2244H10.7967C7.66455 24.2244 6.09848 24.2244 4.89381 23.6343C3.74039 23.0691 2.80769 22.1365 2.24263 20.9831C1.65247 19.7784 1.65247 18.2123 1.65247 15.0801V10.7975Z" fill="white"/>
<path d="M14.7506 12.3737C15.0702 12.3737 15.3293 12.6328 15.3293 12.9525C15.3293 13.272 15.0702 13.5311 14.7506 13.5311C14.4309 13.5311 14.1718 13.272 14.1718 12.9525C14.1718 12.6328 14.4309 12.3737 14.7506 12.3737Z" fill="#1A2530"/>
<path fill-rule="evenodd" clip-rule="evenodd" d="M17.135 8.97131C17.9939 8.97131 18.7199 9.01558 19.3132 9.10413C19.9109 9.19267 20.3934 9.36975 20.7609 9.63535C21.1284 9.90106 21.3962 10.2951 21.5645 10.8175C21.7327 11.3399 21.8168 12.035 21.8168 12.9028C21.8168 13.7971 21.7327 14.512 21.5645 15.0477C21.3962 15.5835 21.1284 15.9863 20.7609 16.2563C20.3934 16.5221 19.9109 16.6969 19.3132 16.781C18.7199 16.8696 17.9939 16.9138 17.135 16.9138C16.2805 16.9138 15.5544 16.8696 14.9568 16.781C14.3591 16.6969 13.8765 16.5221 13.509 16.2563C13.2829 16.0901 13.0944 15.8736 12.9437 15.6067C12.9376 15.6197 12.9315 15.6327 12.9252 15.6454C12.7481 16.0041 12.478 16.2741 12.115 16.4556C11.7519 16.6372 11.2872 16.7589 10.7204 16.8209C10.1582 16.8828 9.48965 16.9138 8.71487 16.9138C7.86042 16.9138 7.13432 16.8696 6.53664 16.781C5.93896 16.6969 5.4564 16.5221 5.08894 16.2563C4.72147 15.9863 4.45362 15.5835 4.28538 15.0477C4.11715 14.512 4.03302 13.7971 4.03302 12.9028C4.03302 12.035 4.11715 11.3399 4.28538 10.8175C4.45362 10.2951 4.72148 9.90106 5.08894 9.63535C5.4564 9.36975 5.93896 9.19267 6.53664 9.10413C7.13432 9.01558 7.86042 8.97131 8.71487 8.97131C9.73762 8.97131 10.5787 9.03109 11.2385 9.15063C11.9025 9.26576 12.394 9.50481 12.7127 9.86779C12.802 9.96947 12.8787 10.1088 12.943 10.2731C13.0938 10.0118 13.2825 9.79916 13.509 9.63535C13.8765 9.36975 14.3591 9.19267 14.9568 9.10413C15.5544 9.01558 16.2805 8.97131 17.135 8.97131ZM8.71487 10.0338C7.92683 10.0338 7.30257 10.0671 6.84213 10.1335C6.3817 10.1999 6.04301 10.3305 5.82608 10.5252C5.60915 10.7156 5.46747 11.0013 5.40105 11.382C5.33907 11.7627 5.30809 12.2697 5.30809 12.9028C5.30809 13.5579 5.33907 14.0826 5.40105 14.4767C5.46747 14.8706 5.60915 15.1673 5.82608 15.3666C6.04301 15.5613 6.38171 15.6919 6.84213 15.7583C7.30257 15.8203 7.92683 15.8513 8.71487 15.8513C9.38334 15.8513 9.93019 15.8335 10.3552 15.7982C10.7802 15.7583 11.11 15.6831 11.3447 15.5723C11.5793 15.4573 11.7409 15.2935 11.8295 15.081C11.9064 14.9015 11.9514 14.6733 11.9648 14.3968C12.0916 14.3999 12.2356 14.3999 12.3999 14.3999H14.4979C15.1629 14.3999 15.4954 14.3999 15.7019 14.1933C15.9085 13.9868 15.9086 13.6542 15.9086 12.9892V12.9169C15.9086 12.2518 15.9085 11.9194 15.7019 11.7128C15.4954 11.5061 15.1628 11.5061 14.4979 11.5061H12.3999C12.2317 11.5061 12.0847 11.5061 11.9556 11.5095C11.925 11.1355 11.8408 10.7303 11.7033 10.5651C11.5262 10.3526 11.203 10.211 10.7337 10.1401C10.2644 10.0693 9.59144 10.0338 8.71487 10.0338ZM17.135 10.0338C16.3469 10.0338 15.7226 10.0671 15.2623 10.1335C14.8018 10.1999 14.4632 10.3305 14.2462 10.5252C14.0992 10.6542 13.9869 10.827 13.909 11.0432H17.7467C18.4532 11.0432 18.8065 11.0432 19.0261 11.2628C19.2455 11.4822 19.2455 11.8356 19.2455 12.5421V13.3357C19.2455 14.0423 19.2455 14.3956 19.0261 14.615C18.8065 14.8346 18.4532 14.8346 17.7467 14.8346H13.9115C13.9892 15.0556 14.1008 15.2329 14.2462 15.3666C14.4632 15.5613 14.8018 15.6919 15.2623 15.7583C15.7226 15.8203 16.3469 15.8513 17.135 15.8513C17.9274 15.8513 18.5517 15.8203 19.0077 15.7583C19.4682 15.6919 19.8068 15.5613 20.0238 15.3666C20.2407 15.1673 20.3802 14.8706 20.4421 14.4767C20.5085 14.0826 20.5418 13.5579 20.5418 12.9028C20.5418 12.2697 20.5085 11.7627 20.4421 11.382C20.3802 11.0013 20.2407 10.7156 20.0238 10.5252C19.8068 10.3305 19.4682 10.1999 19.0077 10.1335C18.5517 10.0671 17.9274 10.0338 17.135 10.0338Z" fill="#1A2530"/>
</svg>
